<mxfile host="app.diagrams.net" modified="2023-04-17T20:42:13.934Z" agent="Mozilla/5.0 (X11; Linux x86_64) AppleWebKit/537.36 (KHTML, like Gecko) Chrome/112.0.0.0 Safari/537.36" version="21.1.8" etag="Jg3mivoglsg10yQQ9M69" type="github">
  <diagram name="Page-1" id="g4feCr107K3w8dpTUA4j">
    <mxGraphModel>
      <root>
        <mxCell id="0" />
        <mxCell id="1" parent="0" />
      </root>
    </mxGraphModel>
  </diagram>
</mxfile>
